PathFileType        4      (X/Y/Z)      C:\Users\pc\Desktop\IMUTRC\Sujet_03\Sujet_03_velo_80.trc         
DataRate	CameraRate	NumFrames	NumMarkers	Units	OrigDataRate	OrigDataStartFrame	OrigNumFrames
60.0	60.0	4	64	mm	60.0	235	936
Frame#	Time	pHipOrigin			pRightASI			pLeftASI			pRightCSI			pLeftCSI			pRightIschialTub			pLeftIschialTub			pSacrum			pL5SpinalProcess			pL3SpinalProcess			pT12SpinalProcess			pIJ			pT4SpinalProcess			pT8SpinalProcess			pPX			pC7SpinalProcess			pTopOfHead			pRightAuricularis			pLeftAuricularis			pBackOfHead			pRightAcromion			pLeftAcromion			pRightArmLatEpicondyle			pRightArmMedEpicondyle			pLeftArmLatEpicondyle			pLeftArmMedEpicondyle			pRightUlnarStyloid			pRightRadialStyloid			pRightOlecranon			pLeftUlnarStyloid			pLeftRadialStyloid			pLeftOlecranon			pRightTopOfHand			pRightPinky			pRightBallHand			pLeftTopOfHand			pLeftPinky			pLeftBallHand			pRightGreaterTrochanter			pRightKneeLatEpicondyle			pRightKneeMedEpicondyle			pRightPatella			pLeftGreaterTrochanter			pLeftKneeLatEpicondyle			pLeftKneeMedEpicondyle			pLeftPatella			pRightTibialTub			pRightLatMalleolus			pRightMedMalleolus			pLeftTibialTub			pLeftLatMalleolus			pLeftMedMalleolus			pRightHeelFoot			pRightFirstMetatarsal			pRightFifthMetatarsal			pRightPivotFoot			pRightHeelCenter			pRightToe			pLeftHeelFoot			pLeftFirstMetatarsal			pLeftFifthMetatarsal			pLeftPivotFoot			pLeftHeelCenter			pLeftToe			
		X1	Y1	Z1	X2	Y2	Z2	X3	Y3	Z3	X4	Y4	Z4	X5	Y5	Z5	X6	Y6	Z6	X7	Y7	Z7	X8	Y8	Z8	X9	Y9	Z9	X10	Y10	Z10	X11	Y11	Z11	X12	Y12	Z12	X13	Y13	Z13	X14	Y14	Z14	X15	Y15	Z15	X16	Y16	Z16	X17	Y17	Z17	X18	Y18	Z18	X19	Y19	Z19	X20	Y20	Z20	X21	Y21	Z21	X22	Y22	Z22	X23	Y23	Z23	X24	Y24	Z24	X25	Y25	Z25	X26	Y26	Z26	X27	Y27	Z27	X28	Y28	Z28	X29	Y29	Z29	X30	Y30	Z30	X31	Y31	Z31	X32	Y32	Z32	X33	Y33	Z33	X34	Y34	Z34	X35	Y35	Z35	X36	Y36	Z36	X37	Y37	Z37	X38	Y38	Z38	X39	Y39	Z39	X40	Y40	Z40	X41	Y41	Z41	X42	Y42	Z42	X43	Y43	Z43	X44	Y44	Z44	X45	Y45	Z45	X46	Y46	Z46	X47	Y47	Z47	X48	Y48	Z48	X49	Y49	Z49	X50	Y50	Z50	X51	Y51	Z51	X52	Y52	Z52	X53	Y53	Z53	X54	Y54	Z54	X55	Y55	Z55	X56	Y56	Z56	X57	Y57	Z57	X58	Y58	Z58	X59	Y59	Z59	X60	Y60	Z60	X61	Y61	Z61	X62	Y62	Z62	X63	Y63	Z63	X64	Y64	Z64	
235	3.9	0.0	1249.98473	7.653948992887842E-14	90.97204000000002	1338.06877	132.61702000000008	88.66163999999999	1325.65036	-141.5698199999999	62.72739000000001	1413.67664	105.46981000000008	60.82130999999999	1403.39536	-120.89173999999991	-68.21459	1209.84151	59.08851000000008	-69.13875	1204.70087	-54.063379999999924	-60.99459	1286.95115	-1.1551999999999174	-0.05776000000000035	1376.71023	-5.775999999999915	69.60083	1474.61347	-12.996009999999913	135.33174	1562.81303	-20.50480999999991	405.47538	1589.61368	-31.825769999999928	287.06733	1698.08701	-35.580179999999906	209.9577	1642.29083	-28.533449999999913	303.41342	1508.98069	-22.006569999999925	334.37279	1730.54815	-37.890579999999915	584.70475	1821.17363	-90.04787999999994	520.36008	1766.82144	2.1948800000000763	482.93158	1766.24384	-137.2378199999999	472.24598	1814.41571	-59.839389999999916	340.89968	1731.12575	172.8757600000001	320.16383	1700.05085	-249.9853899999999	434.81748	1447.17746	157.16503000000006	414.48595	1441.57474	100.38693000000006	413.44627	1421.70529	-231.50218999999996	401.48994	1419.04833	-172.18263999999994	518.68504	1204.64311	118.52357000000005	568.06986	1225.84104	121.00726000000004	397.7933	1439.8997	130.13334000000006	514.29527	1185.81334	-211.69049999999993	562.35162	1209.89927	-215.50265999999993	380.75409	1414.25424	-202.16008999999994	721.19169	1118.00307	177.4388	626.11869	1118.63843	146.47943000000004	572.69066	1174.55013	117.13733000000005	691.15647	1090.04722	-310.92222	602.78363	1097.20946	-264.65644	562.35162	1154.27637	-220.47001999999998	32.230090000000004	1234.73608	163.46087000000009	385.54818	1027.89743	110.43717000000002	383.52657	1032.57599	30.61281000000004	404.49346	1070.40881	69.71635000000005	7.451039999999989	1224.33928	-168.94807999999992	252.70012	893.37433	-195.86424999999997	266.62028	889.56217	-117.19508999999995	293.76749	920.52154	-158.43574999999998	425.17155	985.44381	61.16787000000003	235.94971	608.96396	90.04788000000003	229.3073	613.12268	23.681610000000024	286.89405	835.96086	-160.51510999999996	1.9060799999999933	528.79304	-107.43364999999997	21.140169999999998	529.31288	-43.377779999999966	174.08872	537.11048	33.55858000000002	339.10911	513.08231	-12.129609999999989	337.60735	489.4007	65.96195000000002	361.00016	496.67847	24.779050000000012	213.59658	529.4284	31.941290000000016	442.55732	478.94614	20.96689	-66.42403	489.34294	-33.21201999999997	74.79923	389.7069	-27.26272999999998	43.26225999999999	373.18753	-100.73348999999997	76.76307	366.83393	-67.11714999999997	-35.81122	464.21733	-40.720819999999975	139.20166	313.34814	-81.84596	
236	3.917	0.0	1249.98473	7.653948992887842E-14	91.02980000000001	1337.49117	132.9635800000001	88.37283999999998	1326.51676	-141.28101999999993	62.72739000000001	1413.1568	106.27845000000009	60.532509999999995	1404.08848	-120.14084999999992	-68.04131	1209.43719	58.97299000000008	-69.13875	1204.93191	-54.23665999999992	-61.05235	1286.83563	-0.8663999999999173	-0.2310400000000003	1376.71023	-5.140639999999916	69.25427	1474.72899	-12.187369999999913	134.8119	1563.10183	-19.69616999999991	404.89778	1590.48008	-31.42144999999993	286.20093	1698.72237	-35.00257999999991	209.20682	1642.69515	-27.782569999999915	303.06686	1509.61605	-21.428969999999925	333.39087	1731.24127	-37.428499999999914	583.43403	1822.61763	-89.70131999999992	519.3204	1767.97665	2.5414400000000765	481.83414	1767.4568	-136.8912599999999	471.03301	1815.51315	-59.43506999999992	340.09103	1731.76111	173.4533600000001	319.12415	1700.85949	-249.35002999999992	434.3554	1447.92834	157.56935000000004	414.13939	1442.38338	100.73349000000006	412.63763	1422.39841	-230.92458999999994	400.85458	1419.85697	-171.54727999999994	518.33848	1205.45175	119.27445000000004	567.78106	1226.70744	121.81590000000004	397.38898	1440.65058	130.47990000000004	513.83319	1186.67974	-210.76633999999996	561.83178	1210.76567	-214.69401999999994	380.06097	1415.00512	-201.52472999999995	720.90289	1118.92723	178.3052	625.82989	1119.44707	147.34583000000003	572.3441	1175.35878	117.94597000000005	690.75215	1090.91362	-309.88254	602.32155	1098.0181	-263.61676	561.88954	1155.14277	-219.48809999999997	30.901610000000012	1231.73256	163.40311000000008	374.34273	1009.06766	109.74405000000003	373.12977	1014.95918	29.97745000000004	395.59842	1051.17472	69.71635000000005	8.201919999999989	1226.36088	-169.23687999999993	264.02108	903.94441	-200.77384999999998	277.88349	899.32361	-122.10469999999995	304.1643	931.8425	-162.82550999999998	416.44979	968.63564	61.16787000000003	240.97483	585.51339	89.64356000000002	235.02555	589.09451	23.161770000000022	295.67357	845.43351	-164.21174999999997	-0.9241600000000064	550.56857	-105.46980999999997	18.425449999999998	551.49273	-41.47169999999996	180.55784	512.62023	33.03874000000001	345.9248	491.01798	-12.649449999999991	344.7696	467.27861	65.49987000000002	368.04689	474.90294	24.31697000000001	220.18122	505.51575	31.479210000000016	449.89284	458.32581	20.50481	-69.94739	512.96679	-31.421449999999965	69.54307	411.07811	-24.259209999999978	38.06385999999999	394.55874	-97.72995999999998	71.33363	387.91634	-63.94034999999999	-39.7389	487.32134	-38.58369999999997	132.90582	333.21759	-78.09156	
237	3.933	0.0	1249.98473	7.653948992887842E-14	91.26084000000002	1336.68253	133.36790000000008	88.19955999999999	1327.3254	-140.99221999999992	62.84291000000001	1412.5792	107.08709000000009	60.35922999999999	1404.7816	-119.33220999999992	-67.98355	1209.09063	58.85747000000008	-69.25427	1205.22071	-54.35217999999992	-61.05235	1286.83563	-0.5775999999999174	-0.2888000000000003	1376.71023	-4.4475199999999155	69.13875	1474.84451	-11.378729999999912	134.5231	1563.27511	-18.82976999999991	404.55122	1591.23096	-31.01712999999993	285.62333	1699.18445	-34.424979999999906	208.8025	1642.98395	-27.031689999999916	302.89358	1510.13589	-20.735849999999925	332.75551	1731.81887	-36.90865999999991	582.39435	1824.23491	-89.00819999999993	518.454	1769.07409	3.003520000000077	481.08326	1768.66977	-136.42917999999992	469.99333	1816.55283	-58.857469999999914	339.51343	1732.33871	174.08872000000008	318.48879	1701.84142	-248.65690999999993	434.0666	1448.50594	158.03143000000006	414.02387	1443.13426	101.08005000000006	411.94451	1423.09153	-230.05817999999994	400.16146	1420.60785	-170.68087999999995	518.1652	1206.08711	120.19861000000004	567.55002	1227.3428	122.74006000000004	397.15794	1441.3437	130.76870000000005	513.25559	1187.43062	-209.55337999999995	561.19642	1211.57431	-213.53881999999993	379.36785	1415.69824	-200.65832999999995	720.67185	1119.62035	179.40264	625.59884	1120.14019	148.38551000000004	572.17082	1175.99414	118.92789000000005	690.23231	1091.54898	-308.4963	601.80171	1098.71122	-262.23052	561.31194	1155.89365	-218.21737999999996	29.22657000000001	1228.498	163.28759000000008	360.48032	988.27405	108.58885000000002	360.19152	995.43629	28.93777000000004	384.33522	1029.80351	69.36979000000002	9.18383999999999	1228.7868	-169.5834399999999	275.91965	915.84298	-205.74120999999997	289.43549	910.06697	-127.12981999999995	314.8499	944.26091	-166.98423999999997	405.47538	949.63259	61.05235000000003	243.74731	560.44554	88.95044000000001	238.66443	563.50682	22.35313000000002	305.0307	856.17687	-167.96615999999997	-2.3681600000000063	573.61482	-104.25684999999997	16.865929999999995	575.00106	-40.200979999999966	184.42776	486.91702	32.28785000000001	349.91024	466.75877	-13.573609999999993	349.04384	442.90388	64.51795	372.20561	450.75925	23.335050000000006	224.1089	480.1591	30.670570000000016	454.16709	434.933	19.407369999999997	-71.96899	537.226	-30.439529999999966	66.59731	434.0666	-22.179849999999977	35.29137999999999	417.60499	-95.82387999999997	68.33011	410.78931	-61.80322999999998	-41.93378	511.23399	-37.42849999999997	129.55574	355.51296	-75.43458999999999	
238	3.95	0.0	1249.98473	7.653948992887842E-14	91.72292000000002	1335.93165	133.54118000000008	87.79523999999999	1328.01852	-140.8189399999999	63.24723000000001	1411.94384	107.78021000000008	60.01266999999999	1405.41696	-118.69684999999991	-67.81027	1208.80183	58.85747000000008	-69.42755	1205.56727	-54.40993999999992	-60.99459	1286.89339	-0.17327999999991744	-0.23104000000000025	1376.71023	-3.8699199999999156	69.08099	1474.84451	-10.685599999999914	134.34982	1563.39063	-18.078889999999912	404.32018	1591.80856	-30.84384999999993	285.16125	1699.53101	-34.02065999999991	208.45593	1643.21499	-26.454089999999916	302.83582	1510.54021	-20.331529999999926	332.17791	1732.28095	-36.61985999999992	581.52794	1825.62115	-88.43059999999993	517.70312	1769.99825	3.407840000000077	480.50566	1769.76721	-136.1403799999999	469.12693	1817.41923	-58.453149999999916	339.10911	1732.74303	174.4930400000001	318.08446	1702.82334	-248.1370699999999	433.7778	1448.96802	158.26247000000006	413.96611	1443.71186	101.25333000000006	411.30915	1423.72689	-229.36505999999994	399.46834	1421.30097	-169.98775999999995	517.81864	1206.49143	121.06502000000005	567.20346	1227.68936	123.72198000000004	396.98466	1441.86354	130.99974000000006	512.50471	1188.06598	-208.45592999999994	560.5033	1212.15191	-212.44137999999995	378.67473	1416.39137	-199.96520999999996	720.26753	1119.96691	180.50008	625.19452	1120.54451	149.42519000000001	571.82426	1176.39846	119.90981000000004	689.53919	1092.06882	-307.11006	601.10859	1099.28882	-260.90204	560.61882	1156.52901	-217.06217999999998	27.840330000000012	1225.72552	163.11431000000007	345.23168	967.76924	106.97157000000004	345.636	975.68236	27.37825000000004	371.51249	1008.25902	68.27235000000003	9.93471999999999	1231.27048	-169.92999999999992	287.99149	928.9545	-210.82409999999996	301.33406	922.08106	-132.21269999999998	325.65103	957.95004	-171.25847999999996	392.65266	930.57178	60.648030000000034	242.93867	536.59064	88.19956000000002	238.72219	539.18985	21.544490000000017	314.8499	868.36424	-171.72055999999998	-1.3862400000000064	596.60331	-104.31460999999996	17.674569999999996	598.62491	-40.200979999999966	184.19672	462.60005	31.421450000000018	349.6792	442.84612	-14.613289999999994	348.92832	418.93347	63.47827000000001	372.09009	426.90435	22.237610000000004	223.87786	455.89989	29.746410000000015	454.05157	411.19363	18.252169999999996	-71.56467	560.7921	-30.786089999999962	66.59731	457.28613	-21.255689999999976	35.75345999999999	440.65124	-95.01523999999998	68.56115	433.7778	-60.76354999999998	-41.58722	534.68456	-37.428499999999964	129.67126	378.32817	-73.75954999999999	
